# xmcd CD database file
#
# Track frame offsets:
#	150
#	16065
#	24995
#	42947
#	52915
#	66357
#	80195
#	99212
#	116177
#	126930
#	143400
#	160020
#	169262
#	183602
#	193182
#	206422
#	219375
#
# Disc length: 3216 seconds
#
# Revision: 0
# Processed by: cddbd v1.5.1PL0 Copyright (c) Steve Scherf et al.
# Submitted via: CDex 1.51
#
DISCID=e90c8e11
DTITLE=Various Artist - Virginia Traditions-Native Virginia Ballads and Songs
DYEAR=1900
DGENRE=Country
TTITLE0=Claude Allen
TTITLE1=Sidney Allen
TTITLE2=Poor Goins
TTITLE3=The Vance Song
TTITLE4=The Fate Of Dewey Lee
TTITLE5=The Fate Of Talmadge Osborne
TTITLE6=The Wreck Of The 1256
TTITLE7=The Wreck Of The Old 97
TTITLE8=The Life And Death Of Charlie Poole
TTITLE9=The Story Of Freeda Bolt
TTITLE10=The Ballad Of Caty Sage
TTITLE11=The Cyclone Of Rye Cove
TTITLE12=The Story Of The Flood
TTITLE13=The Pinnacle Mountain Silver Mine
TTITLE14=The New River Song
TTITLE15=Highway 52
TTITLE16=The Battle Of Fancy Gap
EXTD=
EXTT0=
EXTT1=
EXTT2=
EXTT3=
EXTT4=
EXTT5=
EXTT6=
EXTT7=
EXTT8=
EXTT9=
EXTT10=
EXTT11=
EXTT12=
EXTT13=
EXTT14=
EXTT15=
EXTT16=
PLAYORDER=
